<svg xmlns="http://www.w3.org/2000/svg" viewBox="0 0 700 440" width="100%" height="auto" role="img" aria-label="Shift in Demand Curve">
  <style>
    .bg { fill: #ffffff; stroke: #111111; stroke-width: 1.5; }
    .axis { stroke: #111111; stroke-width: 2.2; stroke-linecap: round; }
    .d0-line { fill: none; stroke: #122a3a; stroke-width: 3.5; stroke-linecap: round; }
    .d1-line { fill: none; stroke: #146b63; stroke-width: 3.5; stroke-linecap: round; stroke-dasharray: 6 3; }
    .d2-line { fill: none; stroke: #b23a2b; stroke-width: 3.5; stroke-linecap: round; stroke-dasharray: 6 3; }
    .guide-line { stroke: #8098ab; stroke-width: 1.2; stroke-dasharray: 4 4; }
    .point-dot { stroke: #ffffff; stroke-width: 2; }
    .text-title { font-family: 'Fraunces', Georgia, serif; font-size: 16px; font-weight: 700; fill: #122a3a; }
    .text-label { font-family: 'Manrope', system-ui, sans-serif; font-size: 12.5px; font-weight: 700; fill: #122a3a; }
    .text-sub { font-family: 'Manrope', system-ui, sans-serif; font-size: 11px; font-weight: 600; fill: #47607a; }
  </style>

  <rect class="bg" width="100%" height="100%" rx="10"/>
  <text class="text-title" x="40" y="34">माग रेखाको स्थानान्तरण (Shift in Demand Curve)</text>
  <text class="text-sub" x="40" y="52">मूल्य स्थिर (P₀) रही अन्य तत्वहरू (आम्दानी, रुचि) मा परिवर्तन हुँदा हुने वृद्धि र कमी</text>

  <!-- Axes -->
  <line class="axis" x1="100" y1="370" x2="100" y2="70"/>
  <line class="axis" x1="100" y1="370" x2="640" y2="370"/>
  <text class="text-label" x="35" y="78">मूल्य (P)</text>
  <text class="text-label" x="530" y="398">माग परिमाण (Q)</text>
  <text class="text-label" x="80" y="388">O</text>

  <!-- Constant Price Line P0 at Y=220 -->
  <line stroke="#b4872a" stroke-width="2.2" stroke-dasharray="5 5" x1="100" y1="220" x2="580" y2="220"/>
  <text class="text-label" x="45" y="225" fill="#b4872a">P₀ (स्थिर)</text>

  <!-- D2 (Decrease - Leftward Shift) -->
  <line class="d2-line" x1="100" y1="150" x2="380" y2="340"/>
  <text class="text-title" x="390" y="346" fill="#b23a2b">D₂D₂</text>
  <circle class="point-dot" fill="#b23a2b" cx="220" cy="220" r="6"/>
  <line class="guide-line" x1="220" y1="220" x2="220" y2="370"/>
  <text class="text-label" x="212" y="390" fill="#b23a2b">Q₂</text>

  <!-- D0 (Initial Demand Curve) -->
  <line class="d0-line" x1="180" y1="100" x2="500" y2="340"/>
  <text class="text-title" x="510" y="346" fill="#122a3a">D₀D₀</text>
  <circle class="point-dot" fill="#122a3a" cx="340" cy="220" r="6"/>
  <line class="guide-line" x1="340" y1="220" x2="340" y2="370"/>
  <text class="text-label" x="332" y="390">Q₀</text>

  <!-- D1 (Increase - Rightward Shift) -->
  <line class="d1-line" x1="260" y1="100" x2="580" y2="340"/>
  <text class="text-title" x="590" y="346" fill="#146b63">D₁D₁</text>
  <circle class="point-dot" fill="#146b63" cx="460" cy="220" r="6"/>
  <line class="guide-line" x1="460" y1="220" x2="460" y2="370"/>
  <text class="text-label" x="452" y="390" fill="#146b63">Q₁</text>

  <!-- Shift Arrows -->
  <!-- Right shift arrow -->
  <line x1="365" y1="160" x2="435" y2="160" stroke="#146b63" stroke-width="2.5"/>
  <polygon points="445,160 432,154 432,166" fill="#146b63"/>
  <text class="text-sub" x="445" y="164" fill="#146b63">मागमा वृद्धि (दायाँतर्फ)</text>

  <!-- Left shift arrow -->
  <line x1="315" y1="285" x2="245" y2="285" stroke="#b23a2b" stroke-width="2.5"/>
  <polygon points="235,285 248,279 248,291" fill="#b23a2b"/>
  <text class="text-sub" x="120" y="289" fill="#b23a2b">मागमा कमी (बायाँतर्फ)</text>
</svg>