<svg xmlns="http://www.w3.org/2000/svg" viewBox="0 0 780 642" role="img" aria-labelledby="t d" xmlns:c2pa="http://c2pa.org/manifest"><metadata><c2pa:manifest>AAAWgmp1bWIAAAAeanVtZGMycGEAEQAQgAAAqgA4m3EDYzJwYQAAABZcanVtYgAAAEdqdW1kYzJtYQARABCAAACqADibcQN1cm46YzJwYTplNjNiMWRhMy0wN2JmLTRmYjYtYTU0OS1mMjdmNDE3ZjY5YmIAAAADl2p1bWIAAAApanVtZGMyYXMAEQAQgAAAqgA4m3EDYzJwYS5hc3NlcnRpb25zAAAAALxqdW1iAAAARGp1bWRjYm9yABEAEIAAAKoAOJtxE2MycGEuaW5ncmVkaWVudC52MwAAAAAYYzJzaOaPuFt1NqDfFpKGVNN8EaIAAABwY2JvcqNpZGM6Zm9ybWF0bWltYWdlL3N2Zyt4bWxqaW5zdGFuY2VJRHgseG1wOmlpZDoxYWM0ZTIwMS0xYWY3LTRiMWMtYjQyYS0yZTE3YjllYWU1ZTZscmVsYXRpb25zaGlwaHBhcmVudE9mAAAB4mp1bWIAAABBanVtZGNib3IAEQAQgAAAqgA4m3ETYzJwYS5hY3Rpb25zLnYyAAAAABhjMnNosB4gSvjnzQe7qqXIKc2ilQAAAZljYm9yomdhY3Rpb25zgqJmYWN0aW9ua2MycGEub3BlbmVkanBhcmFtZXRlcnOha2luZ3JlZGllbnRzgaJjdXJseC1zZWxmI2p1bWJmPWMycGEuYXNzZXJ0aW9ucy9jMnBhLmluZ3JlZGllbnQudjNkaGFzaFggdLts79OEWscLIGIiVxK3+fAPsGj1i2VDNKi0E/DJSJGkZmFjdGlvbngdY29tLmFudGhyb3BpYy5jbGF1ZGUucHJvdmlkZWRqcGFyYW1ldGVyc6F4H2NvbS5hbnRocm9waWMub3JpZ2luLWNvbmZpZGVuY2VndW5rbm93bmtkZXNjcmlwdGlvbnhmQ2xhdWRlIHByb3ZpZGVkIHRoaXMgZmlsZSBhdCB0aGUgcmVxdWVzdCBvZiBhIHVzZXIgYW5kIG1heSBoYXZlIGNyZWF0ZWQgb3IgbW9kaWZpZWQgdGhlIGZpbGUgY29udGVudHMubXNvZnR3YXJlQWdlbnShZG5hbWVmQ2xhdWRlcmFsbEFjdGlvbnNJbmNsdWRlZPUAAADIanVtYgAAAEBqdW1kY2JvcgARABCAAACqADibcRNjMnBhLmhhc2guZGF0YQAAAAAYYzJzaKAXaLoFs4sk+D4o7MrksnYAAACAY2JvcqVjYWxnZnNoYTI1NmNwYWRNAAAAAAAAAAAAAAAAAGRoYXNoWCCBa1Nh8gFtcHDrPovWmRnqXfzNmAkKajk/fHNkI8EypmRuYW1lbmp1bWJmIG1hbmlmZXN0amV4Y2x1c2lvbnOBomVzdGFydBieZmxlbmd0aBkeBAAAAj5qdW1iAAAAJ2p1bWRjMmNsABEAEIAAAKoAOJtxA2MycGEuY2xhaW0udjIAAAACD2Nib3KlY2FsZ2ZzaGEyNTZpc2lnbmF0dXJleE1zZWxmI2p1bWJmPS9jMnBhL3VybjpjMnBhOmU2M2IxZGEzLTA3YmYtNGZiNi1hNTQ5LWYyN2Y0MTdmNjliYi9jMnBhLnNpZ25hdHVyZWppbnN0YW5jZUlEeCx4bXA6aWlkOjQzMjRjN2JjLTc3M2EtNGYwMi1iMGJmLTU5MzMwOGRjM2MzMnJjcmVhdGVkX2Fzc2VydGlvbnODomN1cmx4LXNlbGYjanVtYmY9YzJwYS5hc3NlcnRpb25zL2MycGEuaW5ncmVkaWVudC52M2RoYXNoWCB0u2zv04RaxwsgYiJXErf58A+waPWLZUM0qLQT8MlIkaJjdXJseCpzZWxmI2p1bWJmPWMycGEuYXNzZXJ0aW9ucy9jMnBhLmFjdGlvbnMudjJkaGFzaFggywFzMLMfLQnYHnJeoi4/U9u2IJLPwB9gkrV+zW+QUauiY3VybHgpc2VsZiNqdW1iZj1jMnBhLmFzc2VydGlvbnMvYzJwYS5oYXNoLmRhdGFkaGFzaFggNuCGsAWmwR41fuKJPmd47y4qAHdg5/mYG2Yo/rmYn2p0Y2xhaW1fZ2VuZXJhdG9yX2luZm+jZG5hbWVvQW50aHJvcGljIEZpbGVzZ3ZlcnNpb25lMS4wLjBrc3BlY1ZlcnNpb25lMi40LjAAABA4anVtYgAAAChqdW1kYzJjcwARABCAAACqADibcQNjMnBhLnNpZ25hdHVyZQAAABAIY2JvctKEWQISogEmGCFZAgowggIGMIIBjaADAgECAhRA5aAK7sI50L64g/oGQgU9Z1UTADAKBggqhkjOPQQDAzBJMRcwFQYDVQQKEw5BbnRocm9waWMsIFBCQzEuMCwGA1UEAxMlQW50aHJvcGljIENvbnRlbnQgQ3JlZGVudGlhbHMgUm9vdCBDQTAeFw0yNjA4MDcxODQzNTZaFw0yODA4MDYxOTQzNTZaMEQxFzAVBgNVBAoTDkFudGhyb3BpYywgUEJDMSkwJwYDVQQDEyBBbnRocm9waWMgQ2xhdWRlIENvbnRlbnQgU2lnbmluZzBZMBMGByqGSM49AgEGCCqGSM49AwEHA0IABJh6CmvLUBgFFNU0vUKlOVtE6djd17L5SuwX0LemFisBM3dkd/3cyjxFA3Qo5S46fX0/ihY0VZ7mfb9KF703t5OjWDBWMA4GA1UdDwEB/wQEAwIHgDAVBgNVHSUEDjAMBgorBgEEAYPoXgIBMAwGA1UdEwEB/wQCMAAwHwYDVR0jBBgwFoAUzlHiBIFOZFsj+OPEz5o+nMHXXMIwCgYIKoZIzj0EAwMDZwAwZAIwMXMdFJ4BetLLVY7ORuE9noqbbAZOZn/aArXyTwFAZfKrPzxF2vPoJNf1+UCdg1XGAjBwX1zd9WGqYkqmL5SFqw1QySjr1zJfpJM9+1rdDwSPLMOPOjKuiXjoU/pUUeG9RwmhY3BhZFkNngAAAAAAAAAAAAAAAAAAAAAAAAAAAAAAAAAAAAAAAAAAAAAAAAAAAAAAAAAAAAAAAAAAAAAAAAAAAAAAAAAAAAAAAAAAAAAAAAAAAAAAAAAAAAAAAAAAAAAAAAAAAAAAAAAAAAAAAAAAAAAAAAAAAAAAAAAAAAAAAAAAAAAAAAAAAAAAAAAAAAAAAAAAAAAAAAAAAAAAAAAAAAAAAAAAAAAAAAAAAAAAAAAAAAAAAAAAAAAAAAAAAAAAAAAAAAAAAAAAAAAAAAAAAAAAAAAAAAAAAAAAAAAAAAAAAAAAAAAAAAAAAAAAAAAAAAAAAAAAAAAAAAAAAAAAAAAAAAAAAAAAAAAAAAAAAAAAAAAAAAAAAAAAAAAAAAAAAAAAAAAAAAAAAAAAAAAAAAAAAAAAAAAAAAAAAAAAAAAAAAAAAAAAAAAAAAAAAAAAAAAAAAAAAAAAAAAAAAAAAAAAAAAAAAAAAAAAAAAAAAAAAAAAAAAAAAAAAAAAAAAAAAAAAAAAAAAAAAAAAAAAAAAAAAAAAAAAAAAAAAAAAAAAAAAAAAAAAAAAAAAAAAAAAAAAAAAAAAAAAAAAAAAAAAAAAAAAAAAAAAAAAAAAAAAAAAAAAAAAAAAAAAAAAAAAAAAAAAAAAAAAAAAAAAAAAAAAAAAAAAAAAAAAAAAAAAAAAAAAAAAAAAAAAAAAAAAAAAAAAAAAAAAAAAAAAAAAAAAAAAAAAAAAAAAAAAAAAAAAAAAAAAAAAAAAAAAAAAAAAAAAAAAAAAAAAAAAAAAAAAAAAAAAAAAAAAAAAAAAAAAAAAAAAAAAAAAAAAAAAAAAAAAAAAAAAAAAAAAAAAAAAAAAAAAAAAAAAAAAAAAAAAAAAAAAAAAAAAAAAAAAAAAAAAAAAAAAAAAAAAAAAAAAAAAAAAAAAAAAAAAAAAAAAAAAAAAAAAAAAAAAAAAAAAAAAAAAAAAAAAAAAAAAAAAAAAAAAAAAAAAAAAAAAAAAAAAAAAAAAAAAAAAAAAAAAAAAAAAAAAAAAAAAAAAAAAAAAAAAAAAAAAAAAAAAAAAAAAAAAAAAAAAAAAAAAAAAAAAAAAAAAAAAAAAAAAAAAAAAAAAAAAAAAAAAAAAAAAAAAAAAAAAAAAAAAAAAAAAAAAAAAAAAAAAAAAAAAAAAAAAAAAAAAAAAAAAAAAAAAAAAAAAAAAAAAAAAAAAAAAAAAAAAAAAAAAAAAAAAAAAAAAAAAAAAAAAAAAAAAAAAAAAAAAAAAAAAAAAAAAAAAAAAAAAAAAAAAAAAAAAAAAAAAAAAAAAAAAAAAAAAAAAAAAAAAAAAAAAAAAAAAAAAAAAAAAAAAAAAAAAAAAAAAAAAAAAAAAAAAAAAAAAAAAAAAAAAAAAAAAAAAAAAAAAAAAAAAAAAAAAAAAAAAAAAAAAAAAAAAAAAAAAAAAAAAAAAAAAAAAAAAAAAAAAAAAAAAAAAAAAAAAAAAAAAAAAAAAAAAAAAAAAAAAAAAAAAAAAAAAAAAAAAAAAAAAAAAAAAAAAAAAAAAAAAAAAAAAAAAAAAAAAAAAAAAAAAAAAAAAAAAAAAAAAAAAAAAAAAAAAAAAAAAAAAAAAAAAAAAAAAAAAAAAAAAAAAAAAAAAAAAAAAAAAAAAAAAAAAAAAAAAAAAAAAAAAAAAAAAAAAAAAAAAAAAAAAAAAAAAAAAAAAAAAAAAAAAAAAAAAAAAAAAAAAAAAAAAAAAAAAAAAAAAAAAAAAAAAAAAAAAAAAAAAAAAAAAAAAAAAAAAAAAAAAAAAAAAAAAAAAAAAAAAAAAAAAAAAAAAAAAAAAAAAAAAAAAAAAAAAAAAAAAAAAAAAAAAAAAAAAAAAAAAAAAAAAAAAAAAAAAAAAAAAAAAAAAAAAAAAAAAAAAAAAAAAAAAAAAAAAAAAAAAAAAAAAAAAAAAAAAAAAAAAAAAAAAAAAAAAAAAAAAAAAAAAAAAAAAAAAAAAAAAAAAAAAAAAAAAAAAAAAAAAAAAAAAAAAAAAAAAAAAAAAAAAAAAAAAAAAAAAAAAAAAAAAAAAAAAAAAAAAAAAAAAAAAAAAAAAAAAAAAAAAAAAAAAAAAAAAAAAAAAAAAAAAAAAAAAAAAAAAAAAAAAAAAAAAAAAAAAAAAAAAAAAAAAAAAAAAAAAAAAAAAAAAAAAAAAAAAAAAAAAAAAAAAAAAAAAAAAAAAAAAAAAAAAAAAAAAAAAAAAAAAAAAAAAAAAAAAAAAAAAAAAAAAAAAAAAAAAAAAAAAAAAAAAAAAAAAAAAAAAAAAAAAAAAAAAAAAAAAAAAAAAAAAAAAAAAAAAAAAAAAAAAAAAAAAAAAAAAAAAAAAAAAAAAAAAAAAAAAAAAAAAAAAAAAAAAAAAAAAAAAAAAAAAAAAAAAAAAAAAAAAAAAAAAAAAAAAAAAAAAAAAAAAAAAAAAAAAAAAAAAAAAAAAAAAAAAAAAAAAAAAAAAAAAAAAAAAAAAAAAAAAAAAAAAAAAAAAAAAAAAAAAAAAAAAAAAAAAAAAAAAAAAAAAAAAAAAAAAAAAAAAAAAAAAAAAAAAAAAAAAAAAAAAAAAAAAAAAAAAAAAAAAAAAAAAAAAAAAAAAAAAAAAAAAAAAAAAAAAAAAAAAAAAAAAAAAAAAAAAAAAAAAAAAAAAAAAAAAAAAAAAAAAAAAAAAAAAAAAAAAAAAAAAAAAAAAAAAAAAAAAAAAAAAAAAAAAAAAAAAAAAAAAAAAAAAAAAAAAAAAAAAAAAAAAAAAAAAAAAAAAAAAAAAAAAAAAAAAAAAAAAAAAAAAAAAAAAAAAAAAAAAAAAAAAAAAAAAAAAAAAAAAAAAAAAAAAAAAAAAAAAAAAAAAAAAAAAAAAAAAAAAAAAAAAAAAAAAAAAAAAAAAAAAAAAAAAAAAAAAAAAAAAAAAAAAAAAAAAAAAAAAAAAAAAAAAAAAAAAAAAAAAAAAAAAAAAAAAAAAAAAAAAAAAAAAAAAAAAAAAAAAAAAAAAAAAAAAAAAAAAAAAAAAAAAAAAAAAAAAAAAAAAAAAAAAAAAAAAAAAAAAAAAAAAAAAAAAAAAAAAAAAAAAAAAAAAAAAAAAAAAAAAAAAAAAAAAAAAAAAAAAAAAAAAAAAAAAAAAAAAAAAAAAAAAAAAAAAAAAAAAAAAAAAAAAAAAAAAAAAAAAAAAAAAAAAAAAAAAAAAAAAAAAAAAAAAAAAAAAAAAAAAAAAAAAAAAAAAAAAAAAAAAAAAAAAAAAAAAAAAAAAAAAAAAAAAAAAAAAAAAAAAAAAAAAAAAAAAAAAAAAAAAAAAAAAAAAAAAAAAAAAAAAAAAAAAAAAAAAAAAAAAAAAAAAAAAAAAAAAAAAAAAAAAAAAAAAAAAAAAAAAAAAAAAAAAAAAAAAAAAAAAAAAAAAAAAAAAAAAAAAAAAAAAAAAAAAAAAAAAAAAAAAAAAAAAAAAAAAAAAAAAAAAAAAAAAAAAAAAAAAAAAAAAAAAAAAAAAAAAAAAAAAAAAAAAAAAAAAAAAAAAAAAAAAAAAAAAAAAAAAAAAAAAAAAAAAAAAAAAAAAAAAAAAAAAAAAAAAAAAAAAAAAAAAAAAAAAAAAAAAAAAAAAAAAAAAAAAAAAAAAAAAAAAAAAAAAAAAAAAAAAAAAAAAAAAAAAAAAAAAAAAAAAAAAAAAAAAAAAAAAAAAAAAAAAAAAAAAAAAAAAAAAAAAAAAAAAAAAAAAAAAAAAAAAAAAAAAAAAAAAAAAAAAAAAAAAAAAAAAAAAAAAAAAAAAAAAAAAAAAAAAAAAAAAAAAAAAAAAAAAAAAAAAAAAAAAAAAAAAAAAAAAAAAAAAAAAAAAAAAAAAAAAAAAAAAAAAAAAAAAAAAAAAAAAAAAAAAAAAAAAAAAAAAAAAAAAAAAAAAAAAAAAAAAAAAAAAAAAAAAAAAAAAAAAAAAAAAAAAAAAAAAAAAAAAAAAAAAAAAAAAAAAAAAAAAAAAAAAAAAAAAAAAAAAAAAAAAAAAAAAAAAAAAAAAAAAAAAAAAAAAAAAAAAAAAAAAAAAAAAAAAAAAAAAAAAAAAAAAAAAAAAAAAAAAAAAAAAAAAAAAAAAAAAAAAAAAAAAAAAAAAAAAAAAAAAAAAAAAAAAAAAAAAAAAAAAAAAAAAAAAAAAAAAAAAAAAAAAAAAAAAAAAAAAAAAAAAAAAAAAAAAAAAAAAAAAAAAAAAAAAAAAAAAAAAAAAAAAAAAAAAAAAAAAAAAAAAAAAAAAAAAAAAAAAAAAAAAAAAAAAAAAAAAAAAAAAAAAAAAAAAAAAAAAAAAAAAAAAAAAAAAAAAAAAAAAAAAAAAAAAAAAAAAAAAAAAAAAAAAAAAAAAAAAAAAAAAAAAAAAAAAAAAAAAAAAAAAAAAAAAAAAAAAAAAAAAAAAAAAAAAAAAAAAAAAAAAAAAAAAAAAAAAAAAAAAAAAAAAAAAAAAAAAAAAAAAAAAAAAAAAAAAAAAAAAAAAAAAAAAAAAAAAAAAAAAAAAAAAAAAAAAAAAAAAAAAAAAAAAAAAAAAAAAAAAAAAAAAAAAAAAAAAAAAAAAAAAAAAAAAAAAAAAAAAAAAAAAAAAAAAAAAAAAAAAAAAAAAAAAAAAAAAAAAAAAAAAAAAAAAAAAAAAAAAAAAAAAAAAAAAAAAAAAAAAAAAAAAAAAAAAAAAAAAAAAPZYQLAZllrzB7ToFzchZrUASkKcq8/nOeDwAU+FKcMKLYalAnBSqqRmHNR5AY77eXNvG6OxmXrpjIOmjrCbDddy4hI=</c2pa:manifest></metadata>
  <title id="t">ह्रासमान सीमान्त उपयोगिताको नियम: TU र MU (Law of Diminishing Marginal Utility)</title>
  <desc id="d">माथि कुल उपयोगिता (TU) पाँचौँ एकाइमा अधिकतम हुन्छ। तल सीमान्त उपयोगिता (MU) घट्दै गई पाँचौँ एकाइमा शून्य हुन्छ र त्यसपछि ऋणात्मक हुन्छ। MU भनेको TU को ढल हो। TU peaks at the 5th unit where MU = 0; MU is the slope of TU.</desc>
  <defs>
    <marker id="ah" viewBox="0 0 10 10" refX="8" refY="5" markerWidth="7" markerHeight="7" orient="auto">
      <path d="M0 1 L9 5 L0 9 z" fill="#111827"/>
    </marker>
  </defs>
  <style>
    text { font-family: 'Noto Sans Devanagari', 'Mukta', 'Nirmala UI', 'Mangal', 'Segoe UI', sans-serif; }
    .main { font-size: 18px; font-weight: 700; fill: #122a3a; }
    .pt { font-size: 14.5px; font-weight: 700; fill: #122a3a; }
    .axis { stroke: #111827; stroke-width: 2; stroke-linecap: round; }
    .tk { stroke: #111827; stroke-width: 1.4; }
    .gr { stroke: #dfe7e4; stroke-width: 1; }
    .yt { font-size: 11.5px; font-weight: 600; fill: #475569; text-anchor: end; }
    .xt { font-size: 12px; font-weight: 700; fill: #122a3a; text-anchor: middle; }
    .halo { paint-order: stroke; stroke: #ffffff; stroke-width: 3.5px; stroke-linejoin: round; }
    .axt { font-size: 12.5px; font-weight: 700; fill: #374151; text-anchor: middle; }
    .tu { fill: none; stroke: #146b63; stroke-width: 3.6; stroke-linecap: round; stroke-linejoin: round; }
    .mu { fill: none; stroke: #b23a2b; stroke-width: 3.6; stroke-linecap: round; }
    .gd { stroke: #5b7186; stroke-width: 1.4; stroke-dasharray: 5 4; }
    .tg { stroke: #b23a2b; stroke-width: 2.4; stroke-linecap: round; stroke-dasharray: 7 4; }
    .dot-s { fill: #ffffff; stroke: #b23a2b; stroke-width: 2.2; }
    .dot-k { fill: #122a3a; stroke: #ffffff; stroke-width: 2.5; }
    .tl { font-size: 11.5px; font-weight: 700; fill: #b23a2b; }
    .pk { font-size: 12.5px; font-weight: 700; fill: #0e4a45; }
    .pk2 { font-size: 12.5px; font-weight: 700; fill: #9a3022; }
    .cn { font-size: 15px; font-weight: 800; }
    .dm { font-size: 12.5px; font-weight: 700; fill: #b23a2b; }
    .rg { font-size: 12px; font-weight: 700; text-anchor: middle; }
    .fn { font-size: 11.5px; font-weight: 500; fill: #64748b; }
  </style>

  <rect x="0.75" y="0.75" width="778.5" height="640.5" rx="12" fill="#ffffff" stroke="#d3dedb" stroke-width="1.5"/>
  <text class="main" x="30" y="36">ह्रासमान सीमान्त उपयोगिताको नियम (Law of Diminishing Marginal Utility)</text>
  <text class="pt" x="30" y="72">प्यानल (क): कुल उपयोगिता वक्ररेखा (Total Utility - TU Curve)</text>
  <text class="pt" x="30" y="366">प्यानल (ख): सीमान्त उपयोगिता वक्ररेखा (Marginal Utility - MU Curve)</text>

  <rect x="100" y="96" width="390" height="204" fill="#146b63" opacity="0.07"/>
  <rect x="490" y="96" width="210" height="204" fill="#b23a2b" opacity="0.07"/>
  <rect x="100" y="388" width="390" height="168" fill="#146b63" opacity="0.07"/>
  <rect x="490" y="388" width="210" height="168" fill="#b23a2b" opacity="0.07"/>
  <line class="gr" x1="178" y1="96" x2="178" y2="300"/>
  <line class="gr" x1="178" y1="388" x2="178" y2="556"/>
  <line class="gr" x1="256" y1="96" x2="256" y2="300"/>
  <line class="gr" x1="256" y1="388" x2="256" y2="556"/>
  <line class="gr" x1="334" y1="96" x2="334" y2="300"/>
  <line class="gr" x1="334" y1="388" x2="334" y2="556"/>
  <line class="gr" x1="412" y1="96" x2="412" y2="300"/>
  <line class="gr" x1="412" y1="388" x2="412" y2="556"/>
  <line class="gr" x1="490" y1="96" x2="490" y2="300"/>
  <line class="gr" x1="490" y1="388" x2="490" y2="556"/>
  <line class="gr" x1="568" y1="96" x2="568" y2="300"/>
  <line class="gr" x1="568" y1="388" x2="568" y2="556"/>
  <line class="gr" x1="646" y1="96" x2="646" y2="300"/>
  <line class="gr" x1="646" y1="388" x2="646" y2="556"/>
  <line class="gr" x1="100" y1="263.5" x2="700" y2="263.5"/>
  <line class="gr" x1="100" y1="227.0" x2="700" y2="227.0"/>
  <line class="gr" x1="100" y1="190.5" x2="700" y2="190.5"/>
  <line class="gr" x1="100" y1="154.0" x2="700" y2="154.0"/>
  <line class="gr" x1="100" y1="117.5" x2="700" y2="117.5"/>
  <line class="gr" x1="100" y1="536.0" x2="700" y2="536.0"/>
  <line class="gr" x1="100" y1="444.0" x2="700" y2="444.0"/>
  <line class="gr" x1="100" y1="398.0" x2="700" y2="398.0"/>
  <line class="gd" x1="490" y1="117.5" x2="490" y2="490"/>
  <line class="gd" x1="100" y1="117.5" x2="490" y2="117.5"/>
  <line class="axis" x1="100" y1="300" x2="100" y2="100" marker-end="url(#ah)"/>
  <line class="axis" x1="100" y1="300" x2="714" y2="300" marker-end="url(#ah)"/>
  <line class="axis" x1="100" y1="556" x2="100" y2="384" marker-end="url(#ah)"/>
  <line class="axis" x1="100" y1="490" x2="714" y2="490" marker-end="url(#ah)"/>
  <line class="tk" x1="95" y1="263.5" x2="100" y2="263.5"/>
  <text class="yt" x="90" y="267.5">५</text>
  <line class="tk" x1="95" y1="227.0" x2="100" y2="227.0"/>
  <text class="yt" x="90" y="231.0">१०</text>
  <line class="tk" x1="95" y1="190.5" x2="100" y2="190.5"/>
  <text class="yt" x="90" y="194.5">१५</text>
  <line class="tk" x1="95" y1="154.0" x2="100" y2="154.0"/>
  <text class="yt" x="90" y="158.0">२०</text>
  <line class="tk" x1="95" y1="117.5" x2="100" y2="117.5"/>
  <text class="yt" x="90" y="121.5">२५</text>
  <line class="tk" x1="95" y1="536.0" x2="100" y2="536.0"/>
  <text class="yt" x="90" y="540.0">−५</text>
  <line class="tk" x1="95" y1="444.0" x2="100" y2="444.0"/>
  <text class="yt" x="90" y="448.0">५</text>
  <line class="tk" x1="95" y1="398.0" x2="100" y2="398.0"/>
  <text class="yt" x="90" y="402.0">१०</text>
  <text class="yt" x="90" y="316">O</text>
  <text class="yt" x="90" y="494">O</text>
  <line class="tk" x1="178" y1="300" x2="178" y2="305"/>
  <text class="xt halo" x="178" y="319">१</text>
  <line class="tk" x1="178" y1="487" x2="178" y2="493"/>
  <text class="xt halo" x="178" y="574">१</text>
  <line class="tk" x1="256" y1="300" x2="256" y2="305"/>
  <text class="xt halo" x="256" y="319">२</text>
  <line class="tk" x1="256" y1="487" x2="256" y2="493"/>
  <text class="xt halo" x="256" y="574">२</text>
  <line class="tk" x1="334" y1="300" x2="334" y2="305"/>
  <text class="xt halo" x="334" y="319">३</text>
  <line class="tk" x1="334" y1="487" x2="334" y2="493"/>
  <text class="xt halo" x="334" y="574">३</text>
  <line class="tk" x1="412" y1="300" x2="412" y2="305"/>
  <text class="xt halo" x="412" y="319">४</text>
  <line class="tk" x1="412" y1="487" x2="412" y2="493"/>
  <text class="xt halo" x="412" y="574">४</text>
  <line class="tk" x1="490" y1="300" x2="490" y2="305"/>
  <text class="xt halo" x="490" y="319">५</text>
  <line class="tk" x1="490" y1="487" x2="490" y2="493"/>
  <text class="xt halo" x="490" y="574">५</text>
  <line class="tk" x1="568" y1="300" x2="568" y2="305"/>
  <text class="xt halo" x="568" y="319">६</text>
  <line class="tk" x1="568" y1="487" x2="568" y2="493"/>
  <text class="xt halo" x="568" y="574">६</text>
  <line class="tk" x1="646" y1="300" x2="646" y2="305"/>
  <text class="xt halo" x="646" y="319">७</text>
  <line class="tk" x1="646" y1="487" x2="646" y2="493"/>
  <text class="xt halo" x="646" y="574">७</text>
  <text class="axt" x="400" y="594">उपभोग एकाइ (Q)</text>
  <text class="axt" transform="translate(30 200) rotate(-90)">TU (Utils)</text>
  <text class="axt" transform="translate(30 472) rotate(-90)">MU (Utils)</text>
  <path class="tu" d="M 100.0 300.0 L 107.8 292.8 L 115.6 285.7 L 123.4 278.8 L 131.2 272.0 L 139.0 265.3 L 146.8 258.8 L 154.6 252.5 L 162.4 246.3 L 170.2 240.2 L 178.0 234.3 L 185.8 228.5 L 193.6 222.9 L 201.4 217.4 L 209.2 212.1 L 217.0 206.9 L 224.8 201.9 L 232.6 197.0 L 240.4 192.3 L 248.2 187.7 L 256.0 183.2 L 263.8 178.9 L 271.6 174.7 L 279.4 170.7 L 287.2 166.8 L 295.0 163.1 L 302.8 159.5 L 310.6 156.1 L 318.4 152.8 L 326.2 149.7 L 334.0 146.7 L 341.8 143.9 L 349.6 141.2 L 357.4 138.6 L 365.2 136.2 L 373.0 133.9 L 380.8 131.8 L 388.6 129.8 L 396.4 128.0 L 404.2 126.3 L 412.0 124.8 L 419.8 123.4 L 427.6 122.2 L 435.4 121.1 L 443.2 120.1 L 451.0 119.3 L 458.8 118.7 L 466.6 118.2 L 474.4 117.8 L 482.2 117.6 L 490.0 117.5 L 497.8 117.6 L 505.6 117.8 L 513.4 118.2 L 521.2 118.7 L 529.0 119.3 L 536.8 120.1 L 544.6 121.1 L 552.4 122.2 L 560.2 123.4 L 568.0 124.8 L 575.8 126.3 L 583.6 128.0 L 591.4 129.8 L 599.2 131.8 L 607.0 133.9 L 614.8 136.2 L 622.6 138.6 L 630.4 141.2 L 638.2 143.9 L 646.0 146.7 L 653.8 149.7 L 661.6 152.8 L 669.4 156.1 L 677.2 159.5 L 685.0 163.1"/>
  <path class="mu" d="M 100.0 398.0 L 139.0 407.2 L 178.0 416.4 L 217.0 425.6 L 256.0 434.8 L 295.0 444.0 L 334.0 453.2 L 373.0 462.4 L 412.0 471.6 L 451.0 480.8 L 490.0 490.0 L 529.0 499.2 L 568.0 508.4 L 607.0 517.6 L 646.0 526.8 L 685.0 536.0"/>
  <line class="tg" x1="194.0" y1="218.0" x2="318.0" y2="148.4"/>
  <circle class="dot-s" cx="256.0" cy="183.2" r="4"/>
  <line class="tg" x1="428.0" y1="117.5" x2="552.0" y2="117.5"/>
  <circle class="dot-s" cx="490.0" cy="117.5" r="4"/>
  <line class="tg" x1="610.0" y1="133.2" x2="682.0" y2="160.2"/>
  <circle class="dot-s" cx="646.0" cy="146.7" r="4"/>
  <text class="tl" x="266.0" y="209.2">स्पर्श रेखाको ढल = MU (+६)</text>
  <text class="tl" x="680.0" y="180.7" text-anchor="end">ढल = MU (−४)</text>
  <circle class="dot-s" cx="256.0" cy="434.8" r="4"/>
  <circle class="dot-s" cx="646.0" cy="526.8" r="4"/>
  <text class="tl" x="248.0" y="453.8" text-anchor="end">MU = +६</text>
  <text class="tl" x="654.0" y="542.8" text-anchor="middle">MU = −४</text>
  <circle class="dot-k" cx="490" cy="117.5" r="6.5"/>
  <circle class="dot-k" cx="490" cy="490" r="6.5"/>
  <text class="pk" x="502" y="108.5">अधिकतम TU (Peak Point): ढल = ०</text>
  <text class="pk2" x="502" y="478">MU = 0 (पूर्ण सन्तुष्टि बिन्दु)</text>
  <text class="yt" x="90" y="121.5" style="display:none"></text>
  <text class="cn" x="693.0" y="167.1" fill="#146b63">TU</text>
  <text class="cn" x="693.0" y="541.0" fill="#b23a2b">MU</text>
  <text class="dm" x="215" y="410">ह्रासमान सीमान्त उपयोगिता (Diminishing MU)</text>
  <text class="rg" x="295" y="278" fill="#0e5a53">MU &gt; 0 ⇒ TU बढ्छ (घट्दो दरमा)</text>
  <text class="rg" x="595" y="278" fill="#9a3022">MU &lt; 0 ⇒ TU घट्छ</text>
  <text class="rg" x="295" y="534" fill="#0e5a53">धनात्मक क्षेत्र (MU &gt; 0)</text>
  <text class="rg" x="595" y="430" fill="#9a3022">ऋणात्मक क्षेत्र (Disutility: MU &lt; 0)</text>

  <text class="fn" x="30" y="628">MU = ΔTU ÷ ΔQ = TU वक्रको ढल (Slope)।  उदाहरणात्मक मान: TU = १०Q − Q²,  MU = १० − २Q।</text>
</svg>
