<svg xmlns="http://www.w3.org/2000/svg" viewBox="0 0 960 480" width="100%" height="auto" role="img" aria-label="PPC Analysis: Movements along curve vs Shifts in curve vs Rotations of curve">
  <defs>
    <marker id="arrow-base" viewBox="0 0 10 10" refX="6" refY="5" markerWidth="5" markerHeight="5" orient="auto-start-reverse">
      <path d="M 0 1.5 L 8 5 L 0 8.5 z" fill="#122a3a"/>
    </marker>
    <marker id="arrow-green" viewBox="0 0 10 10" refX="6" refY="5" markerWidth="5" markerHeight="5" orient="auto-start-reverse">
      <path d="M 0 1.5 L 8 5 L 0 8.5 z" fill="#16a34a"/>
    </marker>
    <marker id="arrow-red" viewBox="0 0 10 10" refX="6" refY="5" markerWidth="5" markerHeight="5" orient="auto-start-reverse">
      <path d="M 0 1.5 L 8 5 L 0 8.5 z" fill="#dc2626"/>
    </marker>
    <filter id="m-shadow" x="-4%" y="-4%" width="108%" height="112%">
      <feDropShadow dx="0" dy="2" stdDeviation="3" flood-opacity="0.08"/>
    </filter>
  </defs>

  <style>
    .bg { fill: var(--paper-card, #ffffff); }
    .axis { stroke: var(--ink, #122a3a); stroke-width: 2; stroke-linecap: round; }
    .p-card { fill: var(--paper, #f8fafc); stroke: var(--line, #cbd5e1); stroke-width: 1.2; rx: 10; }
    .p-title { font-family: 'Manrope', system-ui, sans-serif; font-size: 13.5px; font-weight: 800; }
    .p-sub { font-family: 'Manrope', system-ui, sans-serif; font-size: 11px; font-weight: 600; fill: var(--ink-soft, #47607a); }
    .c-base { fill: none; stroke: #146b63; stroke-width: 3; stroke-linecap: round; }
    .c-out { fill: none; stroke: #16a34a; stroke-width: 3; stroke-linecap: round; }
    .c-in { fill: none; stroke: #dc2626; stroke-width: 2.8; stroke-dasharray: 5 4; stroke-linecap: round; }
    .c-rot { fill: none; stroke: #7c3aed; stroke-width: 3; stroke-linecap: round; }
    .axis-lbl { font-family: 'Manrope', system-ui, sans-serif; font-size: 11.5px; font-weight: 700; fill: var(--ink, #122a3a); }
    .node-txt { font-family: 'Manrope', system-ui, sans-serif; font-size: 11.5px; font-weight: 800; }
    .dot-pt { stroke-width: 2.5; stroke: #ffffff; }
  </style>

  <!-- Background -->
  <rect class="bg" width="100%" height="100%" rx="14"/>

  <!-- ==================== PANEL 1: MOVEMENT ALONG PPC ==================== -->
  <g transform="translate(15, 15)">
    <rect class="p-card" width="295" height="450" filter="url(#m-shadow)"/>
    <text class="p-title" x="16" y="28" fill="#146b63">1. Movement Along Curve</text>
    <text class="p-sub" x="16" y="46">Reallocation of Existing Resources</text>

    <!-- Axes -->
    <line class="axis" x1="45" y1="320" x2="45" y2="75" marker-end="url(#arrow-base)"/>
    <line class="axis" x1="45" y1="320" x2="265" y2="320" marker-end="url(#arrow-base)"/>
    <text class="axis-lbl" x="10" y="70">Good Y</text>
    <text class="axis-lbl" x="265" y="340" text-anchor="end">Good X</text>

    <!-- PPC Curve -->
    <path class="c-base" d="M 45 100 Q 130 115 190 200 T 240 320"/>

    <!-- Point A & Point B -->
    <circle class="dot-pt" cx="110" cy="120" r="5.5" fill="#146b63"/>
    <text class="node-txt" x="118" y="116" fill="#146b63">A</text>

    <circle class="dot-pt" cx="190" cy="200" r="5.5" fill="#146b63"/>
    <text class="node-txt" x="198" y="196" fill="#146b63">B</text>

    <!-- Movement Arrow along curve -->
    <path d="M 125 130 Q 155 155 175 185" fill="none" stroke="#b4872a" stroke-width="2" stroke-dasharray="3 3" marker-end="url(#arrow-base)"/>

    <!-- Description -->
    <rect x="14" y="355" width="267" height="80" rx="6" fill="var(--paper-card, #ffffff)" stroke="var(--line, #cbd5e1)"/>
    <text class="p-sub" x="22" y="375">• Shift from point A to B</text>
    <text class="p-sub" x="22" y="395">• More Good X produced, less Good Y</text>
    <text class="p-sub" x="22" y="415" font-weight="700" fill="#146b63">• Total productive capacity is UNCHANGED</text>
  </g>

  <!-- ==================== PANEL 2: SHIFT IN PPC ==================== -->
  <g transform="translate(330, 15)">
    <rect class="p-card" width="295" height="450" filter="url(#m-shadow)"/>
    <text class="p-title" x="16" y="28" fill="#16a34a">2. Parallel Shifts in PPC</text>
    <text class="p-sub" x="16" y="46">Change Affecting Both Goods</text>

    <!-- Axes -->
    <line class="axis" x1="45" y1="320" x2="45" y2="75" marker-end="url(#arrow-base)"/>
    <line class="axis" x1="45" y1="320" x2="265" y2="320" marker-end="url(#arrow-base)"/>
    <text class="axis-lbl" x="10" y="70">Good Y</text>
    <text class="axis-lbl" x="265" y="340" text-anchor="end">Good X</text>

    <!-- Inward Shift (PPC3) -->
    <path class="c-in" d="M 45 140 Q 105 155 155 220 T 195 320"/>
    <text class="node-txt" x="200" y="315" fill="#dc2626" font-size="10">PPC₃</text>

    <!-- Base PPC (PPC1) -->
    <path class="c-base" d="M 45 105 Q 125 120 185 205 T 235 320"/>
    <text class="node-txt" x="240" y="315" fill="#146b63" font-size="10">PPC₁</text>

    <!-- Outward Shift (PPC2) -->
    <path class="c-out" d="M 45 75 Q 145 90 215 190 T 270 320"/>
    <text class="node-txt" x="265" y="310" fill="#16a34a" font-size="10">PPC₂</text>

    <!-- Shift Direction Arrows -->
    <line x1="150" y1="170" x2="180" y2="145" stroke="#16a34a" stroke-width="1.8" marker-end="url(#arrow-green)"/>
    <line x1="135" y1="185" x2="105" y2="210" stroke="#dc2626" stroke-width="1.8" marker-end="url(#arrow-red)"/>

    <!-- Description -->
    <rect x="14" y="355" width="267" height="80" rx="6" fill="var(--paper-card, #ffffff)" stroke="var(--line, #cbd5e1)"/>
    <text class="p-sub" x="22" y="375"><tspan fill="#16a34a" font-weight="700">Right Shift (PPC₂):</tspan> Growth / More Resources</text>
    <text class="p-sub" x="22" y="395"><tspan fill="#dc2626" font-weight="700">Left Shift (PPC₃):</tspan> Disaster / War / Depletion</text>
    <text class="p-sub" x="22" y="415">• Affects production of <tspan font-weight="800">BOTH goods</tspan></text>
  </g>

  <!-- ==================== PANEL 3: ROTATION OF PPC ==================== -->
  <g transform="translate(645, 15)">
    <rect class="p-card" width="295" height="450" filter="url(#m-shadow)"/>
    <text class="p-title" x="16" y="28" fill="#7c3aed">3. Rotations of PPC</text>
    <text class="p-sub" x="16" y="46">Tech Change in ONLY ONE Good</text>

    <!-- Axes -->
    <line class="axis" x1="45" y1="320" x2="45" y2="75" marker-end="url(#arrow-base)"/>
    <line class="axis" x1="45" y1="320" x2="265" y2="320" marker-end="url(#arrow-base)"/>
    <text class="axis-lbl" x="10" y="70">Good Y</text>
    <text class="axis-lbl" x="265" y="340" text-anchor="end">Good X</text>

    <!-- Base PPC: from A(45, 100) to B(210, 320) -->
    <path class="c-base" d="M 45 100 Q 120 120 170 210 T 210 320"/>
    <circle class="dot-pt" cx="45" cy="100" r="4.5" fill="#146b63"/>
    <text class="node-txt" x="30" y="105" fill="#146b63">A</text>
    <text class="node-txt" x="210" y="338" fill="#146b63" font-size="10.5">B</text>

    <!-- Rotated PPC on X-axis: A(45, 100) to B'(265, 320) -->
    <path class="c-rot" d="M 45 100 Q 140 120 210 210 T 265 320"/>
    <text class="node-txt" x="265" y="338" fill="#7c3aed" font-size="10.5">B'</text>

    <!-- Rotation Arrow on X-Axis -->
    <path d="M 215 305 Q 235 305 255 310" fill="none" stroke="#7c3aed" stroke-width="1.8" marker-end="url(#arrow-base)"/>

    <!-- Description -->
    <rect x="14" y="355" width="267" height="80" rx="6" fill="var(--paper-card, #ffffff)" stroke="var(--line, #cbd5e1)"/>
    <text class="p-sub" x="22" y="375">• <tspan fill="#7c3aed" font-weight="700">Rotation on X-axis (AB → AB'):</tspan></text>
    <text class="p-sub" x="22" y="395">  Tech progress in <tspan font-weight="800">Good X only</tspan></text>
    <text class="p-sub" x="22" y="415">• Y-axis maximum remains fixed at point A</text>
  </g>
</svg>